<svg id="Layer_2" data-name="Layer 2" xmlns="http://www.w3.org/2000/svg" viewBox="0 0 778.83 763.21"><defs><style>.cls-1{fill:#6a6b6b;stroke:#fff;}.cls-1,.cls-2{stroke-miterlimit:10;}.cls-2{fill:#fff;stroke:#6a6b6b;}</style></defs><title>Identifier</title><polygon class="cls-1" points="263.62 450.6 310.64 500.55 352.26 461.36 305.24 411.42 263.62 450.6"/><polygon class="cls-1" points="0.7 688.75 71.53 762.5 328.44 508.04 257.61 434.27 0.7 688.75"/><path class="cls-1" d="M469,653.14a21.58,21.58,0,0,1-30.52-1l-51.21-54.73a21.59,21.59,0,0,1,31.54-29.5L470,622.62a21.61,21.61,0,0,1-1,30.52Z" transform="translate(-103.88 -171.5)"/><path class="cls-1" d="M652.89,372.08c-68.48,92.34-175.41,60.21-259.18-5.16a248.13,248.13,0,0,0-5.55,52.15c0,136.44,110.6,247,247,247s247-110.57,247-247a246,246,0,0,0-58.53-159.6c-59.53,15.7-121.36,46-170.79,112.62Z" transform="translate(-103.88 -171.5)"/><path class="cls-1" d="M635.19,172c-118.54,0-217.54,83.51-241.49,194.9,83.78,65.38,190.7,97.5,259.18,5.16,49.44-66.62,111.25-96.92,170.79-112.61A246.39,246.39,0,0,0,635.19,172Z" transform="translate(-103.88 -171.5)"/><path class="cls-2" d="M635.19,191.09a228.09,228.09,0,0,1,227.95,228c0,125.69-102.26,227.94-228,227.94s-228-102.25-228-227.94a228,228,0,0,1,228-228m0-19.07c-118.54,0-217.54,83.51-241.49,194.9a248.13,248.13,0,0,0-5.55,52.15c0,136.44,110.6,247,247,247s247-110.57,247-247A247.17,247.17,0,0,0,635.19,172Z" transform="translate(-103.88 -171.5)"/></svg>