<svg id="Layer_3" data-name="Layer 3" xmlns="http://www.w3.org/2000/svg" viewBox="0 0 752.63 868.2"><defs><style>.cls-1{fill:#6a6b6b;fill-rule:evenodd;}</style></defs><title>Marathon</title><path class="cls-1" d="M702.23,156.32c-6,5.29.5,14.22-6.69,18.83,1.92,7.26,3.62,12.17,5.86,18.41a14.72,14.72,0,0,1-5,6.28c.58,3.86.26,6,1.67,9.62-1,2.51-3,4-5,5.44-.75,1.18.27,2.69,0,5.44-2.75,3.81-8,5.12-8.79,10.88,4.28,5.59,16.76,6.61,24.27,6.28,9.15,9.59,17.11,19.44,22.18,32.22-.78,7.52,5.23,14.29,7.53,21.76,1.33,4.32,2.12,9.76-1.26,13,4.28,25.14,21.67,43.71,29.29,65.27,4.91-.57,5.77-5.49,8.37-8.79,2.06-2.61,4.06-4.38,5.86-7.11,3.25-5,5.84-10.66,8.79-16.74,1.3-2.68,3.49-5.17,4.6-8,1.46-3.63,2.14-8.42,3.35-12.55s2.85-8.41,3.35-12.13c.92-6.84-2.09-14.5.84-23.43,7.49-3.67,11.52-10.79,16.32-17.16,2.41.8,3.44,3,5.44,4.18A45.43,45.43,0,0,1,837,258.42c7.16.59,12.2,5.69,6.69,11.3,2.73,2.29,6.94,3.1,8.37,6.69-1.1,1-.61,3.58-2.09,4.18,3.17,2.32,6,5.74,2.93,10,.7,2.51,2.65,3.76,3.77,5.86a42,42,0,0,0-1.67,5.86c-8.77,4.76-11,16.07-23,17.57-9.08,11.59-12.59,28.05-15.9,44.35-1,5.09-1.35,10.29-2.93,15.06-1.84,5.57-4.73,10.84-7.11,15.9-4.5,9.53-11.77,18.81-18.41,27.2-3.38,4.27-6.6,9.35-10,12.55-5.55,5.17-9.24,3-17.16,0-6.43-2.43-12.1-3.77-15.9-8-1.57-1.72-3.09-5.33-4.6-8-1.63-2.83-3.09-5.77-4.6-8.37-9.57-16.41-20.55-31.58-29.71-46.44-3.72,7.44-5.64,16.67-12.55,20.92-4.43,23.33-8.3,47.21-23.43,59.83-7.18,14.29-3.09,32.64-9.62,48.54-4.09,2.75-2.63,7.77-4.18,11.72-2.1,5.34-8.85,8.75-8.79,15.48,2.77,2.28,6.31,1.67,10,2.93,12.22,4.12,22.22,14.89,34.31,21.34s25.93,11.68,38.08,17.16c12.8,5.77,23.38,13.87,34.73,20.92,5.49,3.41,10.88,7.28,16.32,11.3s11.92,7.46,16.32,11.3c2.29,2,4.32,5.3,6.69,8a131.89,131.89,0,0,1,13,16.32c4.46,6.72,7.33,14.65,2.51,24.27-2.09,4.18-6.11,7.19-8,12.13-4.32,11.59-6.7,25.14-12.55,36.82-1.94,3.88-5.57,6-1.26,8.79-2.84,19.34-13.21,31.14-16.32,50.21-3.56,7.49-8.3,15.09-11.3,23-3.2,8.47-6.46,20.06-9.62,30.54-2.72,9-7,18.19-8.79,27.2-.71,3.59.1,7-2.51,9.21.07,7-1.94,15.11-2.51,21.76,3.24,2.42,4.94,7.21,8,10,1.81,1.7,4.41,2.16,5.44,4.18,3.4,6.74-1.45,19.55,8.79,21.34,0,2.89,1.21,4.05,1.26,5.86,1.6,2.73,4.42,2.18,6.69,3.77,5.31,3.7,7.63,11.31,13.39,14.64,9.05,3.24,19.07,2,28.45,5.44.79,3.7,5.62,4.69,5.86,8.79.19,3.37-2.37,5.91-4.18,8.79-10.45,5.36-22.24,1.6-32.64,4.18-5.83-.65-12.16-3.13-16.74-2.51-1-.53-2.22-.84-2.93-1.67-21-1.59-32.54-12.65-47.7-20.08-7.09-.47-12.6-5-19.67-7.53-4.43-1.58-9.33-1.28-13-3.35-3.09-1.76-7.27-6.5-8-10.88-.52-3.35.67-7.43,1.26-10,1.13-5,.4-11.55,1.26-15.06,1.59-6.49,5.35-12.67,8.37-17.57a4,4,0,0,0,3.35-1.26c2,.14,2.87,1.32,5,1.26,2.4-4.18,3.14-9.78,4.6-15.48,1.74-6.78,5.33-13.92,3.35-19.25,1.38-2.74.43-9,3.35-11.3,4.11-21.33,9.16-44.65,14.23-66.95a100.81,100.81,0,0,0,2.51-18c.08-2.19-.9-4.41-.84-6.69a102,102,0,0,1,5-27.2c.77-2.32,2.56-4.36,3.35-6.69.95-2.8.75-6.06,1.67-8s3.59-2.66,4.18-5c.88-3.5,1.28-8.87,2.09-13,.77-3.9,1.94-6-.42-10-30.06-19.79-81.22-15.89-115.48-31.38-16.82-2.15-27.86-10.07-40.17-16.74-8.29,6-15.3,13.65-23,20.5-22.67,20.15-51.13,35.47-75.73,53.14-11.14,4.25-19.95,10.82-29.71,17.16-3.24,2.1-5.28,4.53-8.37,7.11-2.06,1.72-5,2.68-7.11,4.6-3.07,2.85-4.41,7.52-7.53,10.46-4.43,4.18-11.5,5.44-17.16,8-12.81-3.45-21.61,2.35-32.22,5-8,2-16,2.35-23.43,5.86a13.35,13.35,0,0,0-3.35,3.77c-23.82,7.1-51.13,16.12-79.08,23-9.24,2.28-19.36,2.93-27.62,5.86-7.73,2.75-14.21,6.16-21.76,8-1.51,1.42-3.13,2.73-4.6,4.18-1.33-.34-3.08-.27-4.18-.84-13.15,3.67-21.7,12.43-35.57,14.23-.9,5.09,1.22,6.54,2.09,11.3-7.42,2.62-9.76,10.33-13.39,16.74.76,2.44,2.12,4.29,4.6,5,2.19-.69,1.54-1.82,2.09-3.77,1.3,0,1.19,1.32,2.93.84,1.24,3.72-1.38,5.41-3.77,6.69-7.87,0-9.28-6-9.62-12.55a44.31,44.31,0,0,0-3.35,18.41c-1.16,1.49-3.6,1.71-5.44,2.51-1.74,8.44-2.64,17.72-6.28,24.27,2.15-10,2.6-17.21,3.77-27.62,1.72-1.87,3.72-1,5-3.35-2.54-7.37,3.38-15.4,5-22.59-2.79-.23-4,4.25-7.11,5-.52,2.41-2.41,3.44-2.93,5.86-1.74.21-2.44,1.46-4.18,1.67-2.22,3.22-4.15,6.73-8,8.37-3.13,8.25-8.59,15.16-13.81,22.18-4.95,6.64-6.88,14.9-11.72,22.18.49,3.82-1.47,8.11-2.93,11.3a40.47,40.47,0,0,1-7.11,3.35c-6.31-3.93-6.44-12.41-7.11-22.18-1-14,.36-30.54,4.18-43.1.91-3,2.95-6.25,4.18-9.21,1.31-3.14,2.49-6.24,3.77-9.21,3.06-7.1,8.18-14.07,9.21-23,1.44-12.63.15-27.5,3.35-41,1.95-2.68,5.84-4.12,8.37-5,.21-2.16,1.85-2.89,2.93-4.18,6.85.7,13,.17,19.25,2.51,2.12.8,3.25,3.1,5.44,4.18,3.31,1.64,6.46.56,9.62,2.51,2-.6,3,.4,4.6-.42,1.72-.19,1.57,1.5,2.93,1.67,6.42-2.07,16-1.33,20.92-6.28,8.92-1.29,17-5.86,25.94-9.62,5.64-2.38,11.55-4.53,16.74-7.11,3.81-1.9,7.41-4.84,11.3-7.11,7.56-4.43,15.58-7.49,23.85-11.3,4.19-1.93,9.44-3.25,12.55-5.44,3.27-2.31,5.28-6.94,9.21-9.62,2.23-1.52,5.72-2.95,8.79-4.6s6.22-2.82,9.21-4.18c7.73-3.54,14.56-9.48,24.27-7.11,13.83-4.21,25.72-8.53,39.75-12.55,4.49-1.29,9.91-1.43,13.81-3.35,2.12-1,6.13-6.1,8.79-9.21,14-16.38,25.12-34.19,36.82-52.72,2.25-3.57,4.61-7.44,7.11-10.88,5.39-7.41,10.86-13,17.57-19.25,3.37-3.16,6-7,9.21-9.62,6.79-5.68,15-9.43,22.18-15.48,1.86-7.28,6.7-12.28,7.53-19.25.26-2.2-1-4.44-.84-6.69.37-5,2.55-10.36,4.6-15.06,2.82-15.59,13.54-23.28,18.41-36.82,7.58-9.44,17.68-16.35,27.2-23.85,2.17-13.23,9.69-23.46,10.46-35.57.38-6-3.55-14.35-4.18-20.5-.25-2.45.53-5,0-7.11s-2.9-3.8-3.77-5.86c-2.1-5-2.93-11.18-4.6-16.74-4.74-15.72-10-33.23-14.64-49.37-10.69-4.11-24-2.29-37.66-4.18-4.84-.67-9.42-3.32-13.81-3.77-3.37-.35-7.66.86-11.72,1.26-3.89.38-7.77.63-11.72,1.26-8.6,1.36-15.39-.06-21.76,1.26-9.86,2-5.66,8.78-4.18,18,2.2,13.74,2.14,25.47,5.44,37.66,4.83,17.88,12.68,32.68,20.08,46,.66,4.68,2,8.69,2.93,13,.86,3.87.81,8.2,2.09,11.72,1,2.75,3.88,4.54,5,7.11,3.54,8,.37,17.21,3.77,27.2-2.53,3.23-2.2,11.63.84,17.57.88,1.72,2.76,3.17,4.18,5,3.12,4.07,3.58,6.18-1.26,8.37-5-1.94-10.39-3.56-13-8a17.46,17.46,0,0,0-.42,9.62c-2.31,2.85-9.37,4.49-10.88-.42-1,2.07-3.25,2.89-5,4.18a20.52,20.52,0,0,1-5.44-3.35c-.22-2.77.23-4-.42-5.86-1.28.06-3.22,1.47-5,2.93-2.22-1.55-2.54-5-4.6-6.69,1.42-3.46,2.6-7.16,3.77-10.88-2.23.84-3.59,2.54-6.28,2.93-10.61-7.86-5.47-27.86-1.67-41,1.27-4.38,3.58-9.24,3.77-13,.21-4.24-3.68-10.4-6.28-15.48-2.8-5.48-5.07-11-7.11-15.48-4.83-10.51-10.46-20-15.06-29.29-10.31-20.69-18.06-41.89-21.34-64.86a29.41,29.41,0,0,1-3.35-13.81c10.54-11.6,23-22.52,38.91-28.45,7.71-2.87,16.15-5.62,24.69-8.37,8.09-2.6,16.44-6.14,24.69-7.11,13.29-1.57,27.07,1.9,39.75-.42,8.9-1.63,16-9.84,24.69-11.72,4-.87,12.48-.63,17.57,0,5.4-3.38,11.3-6.27,17.16-9.21,5.72,2.2,7.7-2.92,12.55-2.09,1.26-1.25,1.57-3.45,2.93-4.6a57,57,0,0,0,5.86-.42c5.75-6.77,9.7-16.75,5.86-25.94-.91-2.19-3-3.9-3.77-6.28-1.12-3.68.57-8.56-.84-12.13-1.28-3.25-5.3-4.84-7.11-8a41.47,41.47,0,0,1-2.93-7.11c-2-6.71-2.22-12.39-2.09-18.83-2.89-.76-6.83,1.49-10.46.84a27.42,27.42,0,0,1-5.86-27.62c1.14-3.58,7.78-13,10.88-15.9,3.38-3.11,11.45-6.34,14.64-5.86,4.83.72,7,5.77,10.88,8.37,8.64-1.47,16.89-7.22,25.94-8.79,8.4-1.46,17.28,1.35,25.52,5,2.69-1.37,4.47-.47,8,0,1.45,1.9,3.1,3.6,4.18,5.86a65.12,65.12,0,0,1,21.34,16.32c.32.38,1,1.27,1.26,1.67C694.9,132.35,696.22,145.45,702.23,156.32Z" transform="translate(-104 -92.75)"/></svg>