<svg id="Layer_1" data-name="Layer 1" xmlns="http://www.w3.org/2000/svg" viewBox="0 0 591.68 878.16"><defs><style>.cls-1{fill:#6a6b6b;}.cls-2{fill:#fff;}</style></defs><title>worker</title><path class="cls-1" d="M203.85,976l124.56-1.2-20.36-58.69-12-59.89,14.37-43.12-13.17-41.92,63.48-4.79,73.06-21.56,45.51,63.48,49.11,37.13,58.69,25.15L703.3,904.13l8.38,24-32.34,28.75,2.4,15.57L723.66,976l27.55-19.16,40.72-31.14L762,881.38,729.65,873l-62.28-31.14-24-24-61.08-9.58-29.94-63.48L532,713.69,516.46,667,497.29,637l-19.16-9.58L465,589.13l12-63.48,7.19-52.7,1.2-37.13-13.17-61.08,1.2-33.54-15.57-38.33L437.4,334,429,377.13l-1.2,57.49-8.38-1.2L423,359.17l13.17-41.92H402.67L376.32,334l-6,29.94-8.38,35.93,10.78,21.56,7.19,12,16.77-2.4,4.79,12-32.34,13.17-21.56,24L344,511.28l2.4,44.32,14.37,43.12,15.57,37.13-3.59,21.56L332,673l-40.72,21.56-35.93,25.15-12,8.38-4.79,45.51L247,804.73l12,63.48v61.08l-39.53,16.77-19.16,12,3.59,18Z" transform="translate(-200.26 -97.84)"/><path class="cls-1" d="M368.32,338.66l9-17.92L388,313l16.13-3.58-3.58-29.27,1.19-31.06,2.39-9.56,16.13-6.57L421.48,209l-13.74-11.95L400,199.48l-8.36,9-3,10.15-9,4.78-.6,12.54-3,20.31v14.93l-2.39,16.13-6.57,21.5,1.19,29.87Z" transform="translate(-200.26 -97.84)"/><path class="cls-1" d="M467.48,314.18C445,255.87,472,184.06,530.34,159.34c50.87-21.63,123.6-12.83,149.47,42,34.91,63.9,8,157.78-64.07,181.62-53.67,18.8-112.44-11.37-140.11-58.68l-4-5.07-4.1-5Z" transform="translate(-200.26 -97.84)"/><path class="cls-1" d="M270.36,305.22c17.33,9.44,35.55,23.44,56.52,18.89,10.2-.69,21.39,3.32,30.8-2,5.86-9.29.51-22.06,6.76-32.25,4.45-12.81,8.26-26.38,5.75-40-1-16,4.19-32.49,14.91-44.55,3.74-14.86,24.51-24.42,36.39-12.67,14,12,12.27,36.68-3,46.86-11.68,12.87-6.06,31.22-8.05,46.77,1.57,16.63,15-1.78,18.3-8.24,22.88-30.69,25.12-71.82,16.56-108-2.38-14.86-12.81-26.51-21.17-38.47a45.7,45.7,0,0,0-19.2-17A134.29,134.29,0,0,0,327.47,98.4c-15.5,0-32.21.41-45.08,10.28-15.19,9.23-27.23,22.86-35.41,38.54-16,24.8-23.67,55.23-18.82,84.54,1.14,12.57,6.65,24.07,13.84,34.23,8.2,13.91,17.16,27.53,28.37,39.23Z" transform="translate(-200.26 -97.84)"/><path class="cls-1" d="M372,223.06l92,14.5,12.24-14.5-107.41-15-7.7,11.33,14.5,4.53-3.63-.91Z" transform="translate(-200.26 -97.84)"/><path class="cls-1" d="M593.36,254.82a19.13,19.13,0,0,1-18.55,16.63,14.59,14.59,0,0,1-15-16.47l0-.16a19.13,19.13,0,0,1,18.55-16.63,14.59,14.59,0,0,1,15,16.47Z" transform="translate(-200.26 -97.84)"/><path class="cls-2" d="M360.19,206.18c-1.41,13.15-13.36,23.86-26.68,23.93s-23-10.54-21.56-23.69l0-.23c1.41-13.15,13.36-23.86,26.68-23.93s23,10.54,21.56,23.69Z" transform="translate(-200.26 -97.84)"/><path class="cls-1" d="M364.66,204.93l-30.57-4.3c-6.52-.92-9.62,13.15-3.87,14l29.94,4.29,4.51-14Z" transform="translate(-200.26 -97.84)"/></svg>